<?xml version="1.0" encoding="UTF-8"?><svg id="Layer_1" xmlns="http://www.w3.org/2000/svg" viewBox="0 0 566.93 99.21"><defs><style>.cls-1,.cls-2{fill:#fff;}.cls-3{fill:#73a22d;}.cls-4{fill:none;stroke:#61a60e;stroke-miterlimit:10;stroke-width:1.71px;}.cls-2{fill-rule:evenodd;}</style></defs><g><path class="cls-2" d="M364.34,31.12c-2.42-5.61-5.71-10.52-9.86-14.74-4.15-4.22-9.02-7.55-14.6-10-5.58-2.45-11.57-3.67-17.97-3.67h-33.21V14.61h31.66c4.76,0,9.17,.91,13.24,2.73,4.06,1.81,7.59,4.29,10.57,7.41,2.98,3.13,5.3,6.78,6.94,10.97,1.64,4.18,2.47,8.64,2.47,13.37s-.82,9.19-2.47,13.38c-1.64,4.18-3.93,7.84-6.87,10.96-2.94,3.13-6.45,5.6-10.51,7.42-4.07,1.82-8.52,2.73-13.36,2.73h-18.05V22.06l-13.6,16.03v57.37h33.21c6.57,0,12.67-1.22,18.29-3.67,5.62-2.45,10.49-5.76,14.6-9.93,4.11-4.18,7.33-9.07,9.67-14.68,2.33-5.61,3.5-11.62,3.5-18.03s-1.21-12.42-3.63-18.03"/><path class="cls-1" d="M189.46,30.69h0s0,0,0,0h0Z"/><path class="cls-1" d="M190.94,48.33c1.89-.61,2.67-.24,3.76,.27,1.04,.5,2.34,1.1,5.04,.97l.2-.02v-.45c0-3.68-.42-7.26-1.23-10.69-1.99,.71-3.45,1.91-4.31,3.57-1.5,2.87-8.47,5.29-10.14,4.47l-.16-.12-.08-.09c-.08-.17-.08-.43,.12-.83,.97-2,1.57-4.17,1.85-6.38,.06-.48,.08-.96,.13-1.44,.02-.16,.07-.33,.2-.43,.11-.08,.24-.11,.38-.13,2.17-.35,4.34-.69,6.46-1.3,1.48-.42,2.93-.96,4.33-1.62-1.13-3.29-2.61-6.42-4.41-9.34-.23,.66-.48,1.32-.76,1.96-.13,.3-.27,.59-.41,.88-.1,.2-.22,.58-.41,.7-.05,.03-.1,.04-.16,.06-.72,.18-1.45,.13-2.18,.04l-.7-.11-.25-.04-.73-.14c-.81-.16-1.63-.34-2.46-.52-.69-.15-1.39-.3-2.09-.43-.38-.08-.77-.14-1.16-.21-.22-.04-.84-.03-.98-.24-.03-.04-.04-.09-.05-.14-.06-.35,.11-.65,.27-.95,.14-.26,.28-.51,.43-.76,.22-.38,.45-.75,.69-1.12,.2-.31,.36-.64,.69-.83,.83-.49,1.88-.44,2.81-.45,1.63-.02,3.48-.06,4.95-1.37-1.68-2.21-3.55-4.28-5.58-6.16-.64,1.6-1.66,3.26-3.08,5.09-.32,.41-.65,.81-.98,1.21-1.15,1.41-2.19,2.9-3.16,4.43-.05,.07-.09,.14-.15,.2-.18,.19-.47,.24-.71,.32-.31,.09-.64,.14-.95,.19-.59,.1-1.18,.21-1.76,.34-1.17,.26-2.31,.61-3.42,1.06-.65,.27-1.25,.69-1.95,.81-.19,.03-.39,.04-.58-.01-.36-.1-.63-.42-.77-.76-.35-.88-.19-1.99-.03-2.89,.21-1.15,.56-2.26,.99-3.34,0,0,0-.02,.01-.03,1.04-2.6,2.93-5.89,5.98-6.84,1.38-.42,2.52-.34,3.61-.27,.95,.07,1.86,.13,2.84-.12,.6-.16,1.22-.43,1.9-.91l.23-.19c-3.91-3.23-8.37-5.82-13.21-7.63l-.04,.57-.02,.29c-.03,.38-.04,.75-.03,1.12l.03,.39,.03,.58c.48,4.22-.66,5.82-2.08,7.86-.92,1.31-1.96,2.8-2.72,5.23-.21,.65-.41,1.41-.99,1.83-.03,.02-.06,.04-.1,.05-.16,.02-.43-.23-.54-.33-.17-.16-.29-.35-.39-.57-.14-.31-.24-.63-.33-.96-.23-.85-.34-1.74-.4-2.62-.13-2.02,.07-4.1,.69-6.03,.19-.57,.4-1.11,.67-1.63,.55-1.09,1.18-2.17,1.8-3.22,.48-.83,.94-1.66,1.38-2.47,.17-.32,.35-.65,.52-.97-2.83-.88-5.75-1.48-8.77-1.8h0c.35,1.53,1.1,2.78,1.74,3.88,.54,.92,1.38,2.3,1.26,2.67-.21,.47-.58,.86-.84,1.47-.97,2.33-1.68,4.49-1.73,6.82,0,.1-.02,.71-.37,1.01-1.03,.96-2.08,1.7-3.12,2.21l-.43,.22c-.36,.15-.49,.06-.54,.02-.62-.48-.24-3.21,.16-6.11,.22-1.56,.46-3.32,.6-5.01,.11-1.5,.09-3.01-.04-4.52-.08-.97-.2-1.93-.38-2.92-.43,0-.86-.01-1.28-.01-2.85,0-5.63,.26-8.34,.75-.02,.56,0,1.07,.03,1.54,.26,3.29,1.82,4.51,3.32,5.48l.35,.23c.3,.2,.61,.39,.88,.59,.87,.63,1.6,1.4,1.86,2.77,.27,1.34,.17,2.97-.11,4.75-.01,.14-.08,.62-.42,.61-.15,0-.32-.2-.58-.59l-.04-.06c-1.85-2.83-4.85-5.88-9.59-8.05h-.02s-.02-.02-.02-.02l-.21-.1c-.2-.12-.27-.27-.08-.68,.55-1.32,1.19-3.02,.58-5.56-4.07,1.12-7.93,2.78-11.47,4.91h.04c1.9,.65,3.51,1.5,4.78,2.54,3.21,2.64,5.45,4.77,5.01,8.13-.11,.77-.32,1.23-.69,1.45-.17,.11-.4,.17-.66,.18-.83,0-2.05-.41-3.68-.98-.88-.3-1.87-.65-2.99-.98-3.16-.96-3.69-2.54-4.3-4.37-.34-1.02-.76-2.15-1.59-3.23-2.81,2.12-5.38,4.56-7.64,7.26,1.54,.21,3,.42,4.44,.66,2.91,.5,5.73,1.18,9.09,2.48l.34,.15c.2,.11,.49,.32,.49,.6,0,1.84,.09,3.67,.29,5.5,.11,1,.24,1.99,.43,2.98,.1,.53,.23,1.05,.36,1.58,.04,.18,.42,1.34,.25,1.44-.02,.01-.05,.01-.08,.01-.71-.04-1.41-.46-2.07-.7-.84-.31-1.69-.61-2.55-.85-.07-.02-.13-.04-.2-.05l-.56-.16c-5.32-1.57-6.65-3.84-8.06-6.24-.95-1.62-1.95-3.3-4.25-4.74-2.27,3.15-4.15,6.58-5.6,10.24,1.96,1.09,4.23,1.4,6.44,1.26,.66-.04,1.32-.12,1.97-.23,.64-.11,1.35-.37,2-.21,.04,.01,.09,.02,.13,.04,.17,.08,.32,.26,.48,.38,.17,.12,.34,.24,.51,.35,.41,.27,.84,.5,1.28,.71,1,.49,2.05,.88,3.13,1.15l.11,.03c.22,.1,.14,.35-.22,.5l-.32,.11c-4.34,1.39-10.94,2.51-16.74-.6-.87,2.9-1.46,5.91-1.76,9.01,1.28-.2,2.32-.62,3.34-1.13,.35-.17,.69-.35,1.05-.52,.37-.2,.76-.4,1.15-.59,1.88-.91,4.2-1.77,8.07-1.96,.29-.01,.58-.06,.87-.02,.04,0,.07,0,.1,.02,.03,.02,.06,.04,.09,.07,.41,.4,.7,.98,1.04,1.45,.39,.54,.78,1.07,1.19,1.59,.33,.43,1.22,1.56,1.27,1.63,.13,.21,.49,.74,.23,.88l-.22,.09c-.39,.11-.77,.21-1.17,.32-3.33,.93-6.77,1.87-10.93,1.95-2.03,.02-4.12-.22-6.29-.74,0,.46-.01,.92-.01,1.38,0,2.25,.16,4.45,.47,6.62,1.92-1.32,4.03-2.35,6.22-3.15,.53-.19,1.06-.37,1.6-.54,.51-.16,1.01-.32,1.53-.43,.02,0,.04,0,.06,0,.01,0,.03,.02,.04,.03,.24,.24,.13,.41,.04,.69-.42,1.22-.68,2.77-.85,4.27-.09,.82-.09,1.66-.22,2.48-.03,.17-.07,.35-.2,.47-.08,.07-.19,.1-.29,.13-1.23,.34-2.59,.21-3.85,.14-1.09-.06-2.21-.12-3.31,.03,.78,3.3,1.92,6.48,3.36,9.47,1.02-1.4,2.11-2.68,3.27-3.84,1.96-1.96,4.11-3.59,6.42-4.84l.11-.06c.15-.03,.37-.08,.63,.04,.33,.14,.77,.58,1.03,.75,1.41,1.1,3.48,2.38,5.75,3.53,.18,.09,1.4,.76,1.64,.92,.31,.21,.6,.48,.3,.59-.35,.12-.62,.21-.62,.21-.67,.22-2.21,.73-2.9,.98l-1.32,.46c-1.17,.41-2.34,.74-3.48,1.07-2.7,.76-5.24,1.49-7.53,3.12-.41,.29-.8,.61-1.17,.94,1.55,2.56,3.35,4.96,5.36,7.16,.14-.16,.31-.39,.49-.65,.64-.92,1.54-2.49,2.47-3.87,1.11-1.65,2.27-3.01,3.06-2.63,.24,.11,.44,.39,.5,.64,.16,.66-.13,1.31-.44,1.88-.15,.29-.33,.56-.5,.83-.21,.3-.43,.58-.64,.87-.89,1.15-1.88,2.22-2.86,3.28l-.83,.96c2.41,2.45,5.1,4.62,8,6.49v-10.58h0c0-4.9,3.98-8.88,8.88-8.88s8.88,3.97,8.88,8.88v19.69l14.44-12.4,.05-.06v-7.23h0c0-4.9,3.97-8.88,8.88-8.88s8.88,3.97,8.88,8.88v10.71c3.54-2.25,6.77-4.94,9.57-8.03-2.39,.43-3.92-1.88-4.71-4.01-.36-.98-.55-1.91-.6-2.52-.02-.29,.06-.49,.16-.63l.07-.07,.09-.06,.04-.03,.09-.03,.08-.02h.07c2.28-.26,5.12,4.29,6.26,5.55,2.82-3.47,5.16-7.34,6.89-11.54-2.13,.17-4.22,.78-6.22,1.51-.68,.25-1.35,.52-2.01,.8-.5,.22-1.01,.46-1.55,.57-.54,.11-1.13,.09-1.68,.1-.99,0-1.98-.06-2.95-.24-1.32-.24-2.57-.71-3.73-1.37-.54-.3-1.07-.67-1.65-.88-1.43-.52-1.63-1.47-.44-1.63,.74-.1,3.14-.42,4.88-.65,.52-.13,1.18-.2,1.93-.25,1.54-.12,3.5-.29,5.21-1.17,.3-.16,.58-.32,.84-.47,.28-.18,.73-.46,1.14-.63,1.36-.52,6.28-2.22,8.06-1,.8-2.85,1.32-5.81,1.56-8.85-1.39,.29-2.66,.75-3.91,1.43-1.47,.8-2.61,1.6-3.51,2.25h0c-.27,.21-.66,.14-.84,.11-.74-.19-1.34-.6-1.8-1.13-.75-.89-1.13-2.11-1.17-3.19-.05-1.47,.55-3.25,2.36-3.82M140.44,13.26c1.84,.91,3.56,2.07,5.06,3.48,1.2,1.13,2.26,2.41,3.14,3.81,.66,1.05,1.25,2.18,1.66,3.36,.07,.21,.06,.39,0,.6-.32,1.18-.58,2.39-.83,3.59-.11,.54-.22,1.08-.31,1.62-.08,.49-.1,1.01-.42,1.41-.05,.07-.12,.13-.2,.16-.11,.05-.23,.03-.34-.02-.3-.13-.51-.41-.7-.66l-.43-.54c-1.68-2.15-3.44-5.52-4-7.54-.27-.98-.44-1.93-.62-2.84-.35-1.94-.73-3.94-2.05-6.4l.04-.04Zm-5.63,11.16c.03-.12,.1-.23,.21-.29,.16-.09,.37-.04,.55,.02,.98,.35,1.92,.97,2.79,1.53,.84,.55,1.64,1.16,2.4,1.82,1.42,1.24,2.68,2.65,3.78,4.18,1.02,1.42,1.91,2.94,2.69,4.51,.27,.54,.52,1.08,.77,1.63,.12,.27,.24,.54,.36,.81,.13,.3,.3,.56,.36,.88,0,.04,.01,.09-.02,.12-.07,.08-.37,.05-.47,.04-.16-.01-.29-.08-.45-.13-.34-.11-.69-.21-1.03-.31l-.34-.09c-.52-.11-1.02-.23-1.5-.31-.49-.08-.95-.12-1.41-.16-.55-.05-1.08-.07-1.55-.08-.41,0-.79-.04-1.21,.01-.42,.06-.87,.13-1.29-.01-.3-.11-.56-.32-.79-.54-.76-.73-1.13-1.69-1.53-2.64-.44-1.05-.81-2.13-1.12-3.22-.52-1.83-.85-3.68-1.08-5.57-.04-.39-.08-.78-.1-1.17-.02-.32-.11-.74-.02-1.05m-11.31,15.62c-.08-.09-.01-.22,.07-.28,.08-.06,.17-.08,.26-.1,2.03-.47,4.03-1.32,5.89-2.27,.41-.21,.77-.48,1.25-.49,.04,0,.08,0,.11,0,.04,0,.07,.03,.11,.05,1.91,1.14,3.67,2.41,5.18,4.06,1.16,1.27,2.15,2.68,2.97,4.19,.27,.5,.66,.97,.67,1.57,0,.03,0,.06-.02,.09-.03,.03-.08,.03-.12,.02-.53-.1-1.01-.33-1.51-.52-.54-.21-1.09-.39-1.65-.54-1.12-.3-2.28-.47-3.43-.51-.18,0-.36,0-.54,0-.82,0-1.67,.06-2.55,.18l-.21,.02h-.05s-.12-.01-.12-.01l-.35-.09c-2.17-1.19-4.3-3.1-5.96-5.36m15.89,21.43s0,.06,0,.09c-.05,.32-.29,.59-.57,.75-.28,.17-.6,.25-.91,.35-.58,.18-1.16,.41-1.75,.55-.57,.13-1.18,.19-1.75,.02-.49-.14-.98-.29-1.46-.44-1.05-.33-2.08-.71-3.09-1.13-1.74-.71-3.51-1.51-5.06-2.6,.82-.25,5.7-1.59,10.25-.42,.73,.19,1.44,.44,2.11,.77,.69,.33,1.5,.71,1.98,1.32,.17,.21,.28,.47,.27,.74m4.22-7.16s0,.05,0,.08c0,.02,0,.03,0,.05,0,.03,0,.06-.01,.09,0,0,0,0,0,0,0,0,0,0,0,0l-.06,.12s-.15,.11-.15,.11c0,0-.02,0-.03,.01-.04,.02-.08,.03-.12,.04-.02,0-.03,0-.05,.01-.05,.01-.11,.02-.17,.03-.01,0-.03,0-.05,0-.05,0-.1,0-.15,0h-.11s-.03,0-.05,0c-.62-.03-1.48-.23-2.42-.45-.91-.21-1.89-.43-2.81-.48-.68-.04-1.35-.09-1.98-.11-1.75-.06-3.52,.24-5.22,.62-2.08,.46-4.13,1.09-6.14,1.8-2.01,.72-3.98,1.55-5.91,2.45-.15,.07-.32,.12-.49,.08-.04,0-.08-.02-.1-.06-.02-.03-.02-.07-.02-.1,.02-.93,.24-1.89,.42-2.8,.19-1.02,.46-2.02,.9-2.97,.17-.36,.36-.71,.57-1.05,.16-.25,.35-.62,.6-.79,.1-.07,.23-.11,.35-.14,1.48-.4,2.99-.7,4.48-1.1,6.62-1.73,15.03-1.9,17.85,1.76,.38,.5,.67,1.3,.8,1.98,.02,.11,.04,.21,.05,.3,0,0,0,0,0,.01,0,.04,.01,.09,.02,.13,0,.05,0,.1,.01,.14,0,.02,0,.03,0,.05,0,.03,0,.07,0,.1,0,.02,0,.04,0,.05m7.25-6.57c-.05,.62-.39,1.24-.94,1.51-.24,.12-.51,.17-.78,.2-1.29,.1-2.58-.48-3.62-1.19-2.75-1.88-4.76-5.41-4.12-6.38,1.2-1.56,6.09,1.16,8.21,3.16,.7,.66,1.29,1.61,1.25,2.61,0,.03,0,.06,0,.1m27.99-16.09c.11-.47,.22-.93,.35-1.4,.06-.21,.11-.43,.18-.64,.05-.17,.08-.41,.2-.54,.06-.06,.14-.1,.22-.12,.36-.1,.77-.02,1.14,0,.42,.04,.83,.08,1.25,.13,.85,.1,1.69,.23,2.53,.37,1.73,.28,3.45,.5,5.2,.6,.46,.03-.17,.69-.27,.8-.33,.34-.73,.62-1.14,.88-3.2,2.08-7.49,3.67-9.16,2.52-.64-.46-.82-1.34-.51-2.62m-24.63,9.95c-4.1-7.59-1.73-12.54,.93-15.89,.75-.94,1.52-1.75,2.18-2.47l.24-.26,.13-.11,.08-.05c.18-.09,.54-.2,.83,.08l.04,.05,.02,.04,.05,.07c.21,.43,.43,.83,.64,1.2,.92,1.61,2.29,3.99,2.39,6.68,.04,1.22-.17,2.5-.81,3.8-1.07,2.19-4.41,7.31-6.07,7.31-.27,0-.49-.14-.66-.44m6.1,8.72l-.3,.55c-.39,.69-.87,1.5-1.57,1.92-.31,.19-.69,.27-1.03,.14-.22-.09-.4-.26-.53-.46-.31-.46-.4-1.04-.36-1.59,.07-.92,.41-1.83,.77-2.66,1.3-2.75,3.13-6.03,5.64-9.98,.33-.53,.68-1.06,1.03-1.61l.17-.23c.48-.62,1.02-1.21,1.61-1.68,1.53-1.24,3.25-2.24,4.99-3.16,1.26-.66,2.56-1.29,3.88-1.82,.32-.13,.6-.23,.96-.17,.03,0,.05,0,.08,.02,.03,.02,.06,.05,.07,.09,.05,.12,.04,.25,.02,.37-.12,.7-.4,1.4-.6,2.08-.37,1.33-.85,3.06-1.12,4.37-.1,.53-1.56,1.57-3.26,2.76-6.12,4.36-9.33,8.83-10.46,11.06m11.06-5.01c-.11,.44-.25,.86-.39,1.29-.19,.59-.37,1.18-.51,1.78-.23,1.02-.43,2.06-.51,3.08-.55,3.72,.32,9.63,.32,9.63-1.83-1.27-6.34,.87-6.34,.87-.4-.69-.52-1.54-.59-2.32-.09-.89-.09-1.79-.05-2.68,.05-1.15,.14-2.33,.52-3.43,.3-.87,.74-1.68,1.25-2.44,.43-.63,.91-1.22,1.42-1.78,.73-.81,1.49-1.59,2.28-2.35,.38-.36,.76-.72,1.15-1.07,.19-.17,.38-.34,.58-.51,.25-.22,.52-.45,.87-.48,.02,0,.04,0,.06,0,.03,.02,.03,.07,.02,.11-.02,.1-.04,.21-.07,.31m1.91,4.78h-.07c-.14,.01-.36-.1-.35-.38,0-.56,.02-1.15,.06-1.75,.18-1.87,.63-3.74,1.06-5.11,.12-.38,.24-.71,.34-1,.14-.28,.28-.61,.72-.89,2.03-1.25,4.21-2.25,6.5-2.92,.42-.12,.94-.35,1.38-.32,.03,0,.07,0,.1,.03,.04,.02,.06,.06,.08,.1,.17,.35-.02,.83-.1,1.2-.08,.36-.18,.71-.28,1.07-.23,.77-.51,1.53-.84,2.27-.75,1.63-1.79,3.14-3.15,4.32-.57,.49-1.18,.93-1.84,1.29-1.44,.8-2.55,1.44-3.43,2l-.18,.1Zm15.43,8.38c.07,.07,.17,.11,.17,.22,0,.07-.02,.14-.05,.2-.18,.45-.72,.67-1.13,.91-.46,.27-.95,.5-1.45,.68-.9,.32-1.86,.49-2.81,.56-1.74,.13-3.49-.07-5.23-.3-1.23-.17-2.54-.39-3.46-1.22-.75-.68-1.14-1.7-1.14-2.71,0-1.01,.38-2,.96-2.82,.85-1.19,2.13-2.05,3.53-2.48,1.4-.43,2.91-.43,4.34-.11,1.04,.23,2.1,.68,2.73,1.55,.31,.43,.49,.94,.7,1.43,.32,.77,.7,1.53,1.16,2.23,.48,.71,1.05,1.29,1.68,1.85"/><path class="cls-2" d="M96.12,44.31c.09,.93,.15,1.81,.19,2.66,.04,.84,.07,1.69,.07,2.53,0,1.18-.04,2.32-.13,3.42-.09,1.1-.22,2.19-.39,3.29-.78,5.57-2.53,10.78-5.25,15.63-2.73,4.85-6.14,9.05-10.25,12.59-4.11,3.54-8.8,6.33-14.08,8.35-5.28,2.03-10.9,3.04-16.87,3.04-6.49,0-12.61-1.22-18.36-3.67-5.75-2.45-10.75-5.76-14.99-9.93-4.24-4.18-7.59-9.07-10.05-14.68-2.46-5.61-3.7-11.62-3.7-18.03s1.23-12.42,3.7-18.03c2.47-5.61,5.82-10.5,10.05-14.68,4.24-4.18,9.23-7.49,14.99-9.93,5.75-2.45,11.87-3.67,18.36-3.67,4.93,0,9.62,.7,14.08,2.09,4.45,1.39,8.54,3.35,12.26,5.88,3.72,2.53,7.03,5.55,9.93,9.05,2.9,3.5,5.25,7.32,7.07,11.45h-15.96c-2.85-4.72-6.68-8.52-11.48-11.39-4.8-2.87-10.1-4.3-15.89-4.3-4.5,0-8.73,.89-12.71,2.66-3.98,1.77-7.44,4.18-10.38,7.21-2.94,3.04-5.28,6.58-7.01,10.63-1.73,4.05-2.6,8.39-2.6,13.03s.87,8.99,2.6,13.03c1.73,4.05,4.06,7.59,7.01,10.63,2.94,3.04,6.4,5.44,10.38,7.21,3.98,1.77,8.22,2.66,12.71,2.66,3.89,0,7.61-.67,11.16-2.02,3.55-1.35,6.73-3.23,9.54-5.63,2.81-2.4,5.19-5.25,7.14-8.54,1.95-3.29,3.31-6.83,4.09-10.22H42.84l10.39-12.3h42.89Z"/><path class="cls-1" d="M261.06,62.69c.68-.41,1.32-.86,1.95-1.31,2.94-2.17,5.29-4.68,6.29-5.81,.17-.2,.35-.39,.52-.6,1.1-1.41,2.07-2.91,2.92-4.49,3.61-7.15,3.76-15.25,3.76-15.25,0-2.1-.21-4.04-.54-5.87-.03-.11-.11-.51-.11-.51-.08-.38-.15-.77-.23-1.14-.05-.15-.27-.95-.33-1.21-.07-.24-.13-.48-.21-.71-1.79-5.56-4.78-10.21-8.95-13.97-2.94-2.56-6-4.42-8.95-5.77,0,0-.02,0-.03-.01-.49-.22-.97-.41-1.45-.6-.46-.18-.92-.37-1.39-.54-.12-.04-.23-.08-.35-.12-.76-.26-1.53-.51-2.31-.73-3.42-.97-7.07-1.45-10.96-1.45h-30.88V14.48h32.56c2.85,0,5.47,.59,7.85,1.78,2.38,1.19,4.43,2.73,6.16,4.63,1.73,1.9,3.12,4.12,4.15,6.66,1.04,2.54,1.56,5.12,1.56,7.74s-.52,5.31-1.56,7.8c-1.04,2.5-2.42,4.72-4.15,6.66-1.73,1.95-3.78,3.51-6.16,4.7-2.38,1.18-4.99,1.78-7.85,1.78h-17.9V22.06l-13.54,16.03v57.37h13.54v-27.33h16.22c1.21,0,2.33-.04,3.37-.13,1.04-.08,2.07-.21,3.11-.38l14.66,27.97h14.66l-16.74-32.14c.17-.17,.39-.3,.65-.38,.26-.08,.48-.21,.65-.38"/></g><path class="cls-3" d="M465.86,80.88c.29-.18,.57-.37,.84-.56,1.27-.93,2.28-2.02,2.71-2.51,.07-.09,.15-.17,.22-.26,.48-.61,.89-1.26,1.26-1.94,1.56-3.08,1.62-6.58,1.62-6.58,0-.9-.09-1.74-.23-2.53-.02-.05-.05-.22-.05-.22-.03-.17-.06-.33-.1-.49-.02-.06-.12-.41-.14-.52-.03-.1-.06-.21-.09-.31-.77-2.4-2.06-4.41-3.86-6.03-1.27-1.1-2.59-1.91-3.86-2.49,0,0,0,0-.01,0-.21-.1-.42-.18-.62-.26-.2-.08-.4-.16-.6-.23-.05-.02-.1-.03-.15-.05-.33-.11-.66-.22-1-.32-1.47-.42-3.05-.63-4.73-.63h-13.32v5.13h14.05c1.23,0,2.36,.26,3.39,.77,1.03,.51,1.91,1.18,2.66,2,.75,.82,1.34,1.78,1.79,2.87,.45,1.1,.67,2.21,.67,3.34s-.22,2.29-.67,3.37c-.45,1.08-1.04,2.04-1.79,2.87-.75,.84-1.63,1.52-2.66,2.03-1.03,.51-2.15,.77-3.39,.77h-7.72v-14.74l-5.84,6.91v24.75h5.84v-11.79h6.99c.52,0,1.01-.02,1.46-.05,.45-.04,.89-.09,1.34-.16l6.32,12.06h6.32l-7.22-13.86c.07-.07,.17-.13,.28-.16,.11-.04,.21-.09,.28-.16Z"/><polygon class="cls-3" points="415.23 60.32 425.14 60.32 425.14 95.07 430.99 95.07 430.99 60.32 438.69 60.32 438.69 54.95 419.67 54.95 415.23 60.32"/><path class="cls-3" d="M498.69,81.45c0,7.29-5.32,8.35-7.45,8.35s-7.45-1.06-7.45-8.35v-26.5l-5.75,6.71v19.95c0,4.47,1.49,7.71,3.99,10.11,2.45,2.02,5.59,3.35,9.2,3.35s6.76-1.33,9.2-3.35c2.5-2.39,3.99-5.64,3.99-10.11v-26.66h-5.75v26.5Z"/><polygon class="cls-3" points="540.73 60.33 550.63 60.33 550.63 95.07 556.48 95.07 556.48 60.33 564.62 60.33 564.62 54.97 545.16 54.97 540.73 60.33"/><g><path class="cls-1" d="M435.72,41.93c-11.03,0-19.98-8.94-19.98-19.98s8.95-19.98,19.98-19.98c8,0,14.91,4.71,18.09,11.51h-6.09c-2.65-3.69-6.96-6.11-11.85-6.11-8.05,0-14.58,6.53-14.58,14.58s6.53,14.58,14.58,14.58c6.35,0,11.75-4.08,13.74-9.75h-9.34v-5h15.42c0,.05,0,.11,0,.16,0,11.03-8.94,19.98-19.98,19.98Z"/><path class="cls-1" d="M492.31,34.11c-.48,1.16-1.12,2.21-1.91,3.1-.78,.89-1.68,1.65-2.7,2.28-.98,.61-2.01,1.1-3.07,1.49-1.04,.38-2.1,.66-3.16,.84-1.06,.18-2.04,.26-2.94,.26-1.41,0-2.81-.15-4.14-.45-1.33-.3-2.62-.74-3.81-1.31-1.2-.57-2.31-1.26-3.31-2.05-1.01-.8-1.9-1.71-2.63-2.72-.74-1.01-1.32-2.12-1.74-3.29-.42-1.19-.64-2.46-.64-3.77v-1.13h5.77v1.13c0,1.09,.26,2.07,.8,3,.55,.96,1.31,1.8,2.25,2.51,.97,.72,2.11,1.3,3.38,1.72,1.27,.41,2.64,.63,4.05,.63,.57,0,1.19-.05,1.84-.16,.66-.11,1.34-.27,2.02-.5,.65-.21,1.29-.5,1.9-.85,.58-.34,1.11-.75,1.56-1.22,.43-.45,.78-.98,1.04-1.56,.25-.57,.37-1.23,.37-1.97,0-.89-.22-1.59-.67-2.15-.51-.63-1.21-1.18-2.08-1.63-.94-.49-2.03-.9-3.23-1.24-1.22-.34-2.53-.68-3.88-1-1.06-.24-2.16-.51-3.26-.79-1.1-.29-2.16-.61-3.14-.97-1.02-.37-1.98-.81-2.84-1.3-.92-.52-1.73-1.16-2.4-1.89-.69-.75-1.24-1.64-1.63-2.63-.39-.99-.58-2.15-.58-3.44,0-1.51,.35-2.96,1.03-4.32,.68-1.34,1.64-2.54,2.88-3.54,1.21-.99,2.67-1.79,4.35-2.37,1.67-.58,3.54-.87,5.56-.87s3.87,.27,5.62,.8c1.78,.54,3.36,1.33,4.7,2.36,1.36,1.05,2.45,2.35,3.24,3.86,.8,1.53,1.21,3.28,1.21,5.21v1.14h-5.77v-1.14c0-1.01-.21-1.88-.65-2.67-.45-.8-1.07-1.49-1.84-2.04-.8-.58-1.76-1.02-2.85-1.33-1.13-.31-2.36-.47-3.65-.47s-2.42,.16-3.44,.47c-1,.31-1.86,.73-2.56,1.25-.67,.5-1.19,1.08-1.55,1.73-.35,.63-.52,1.26-.52,1.93,0,.74,.2,1.34,.62,1.82,.5,.57,1.18,1.08,2.02,1.5,.91,.45,1.96,.85,3.11,1.18,1.19,.34,2.43,.66,3.68,.96,1.11,.28,2.18,.54,3.27,.83,1.12,.29,2.2,.64,3.23,1.04,1.05,.4,2.05,.87,2.95,1.4,.96,.56,1.8,1.23,2.51,2,.72,.79,1.3,1.71,1.71,2.74,.42,1.04,.62,2.23,.62,3.56,0,1.47-.25,2.82-.73,4Z"/><polygon class="cls-1" points="524.98 41.93 520.74 30.16 509.28 30.16 511.21 24.82 518.82 24.82 513.32 9.53 513.21 9.53 501.44 41.93 495.2 41.93 510.58 1.98 515.89 1.98 531.28 41.93 524.98 41.93"/><path class="cls-1" d="M563.88,34.11c-.48,1.16-1.12,2.21-1.91,3.1-.78,.89-1.69,1.65-2.7,2.28-.98,.61-2.01,1.1-3.07,1.49-1.04,.38-2.1,.66-3.16,.84-1.06,.18-2.04,.26-2.94,.26-1.41,0-2.8-.15-4.14-.45-1.34-.3-2.62-.74-3.81-1.31-1.2-.57-2.31-1.26-3.31-2.05-1.01-.8-1.9-1.71-2.63-2.72-.74-1.01-1.32-2.12-1.73-3.29-.42-1.19-.63-2.46-.63-3.77v-1.13h5.77v1.13c0,1.09,.26,2.07,.8,3,.56,.96,1.31,1.8,2.26,2.51,.96,.72,2.1,1.3,3.38,1.72,1.27,.41,2.64,.63,4.05,.63,.57,0,1.19-.05,1.84-.16,.66-.11,1.34-.27,2.02-.5,.65-.21,1.29-.5,1.9-.85,.59-.34,1.11-.75,1.56-1.22,.43-.45,.78-.98,1.04-1.56,.25-.57,.37-1.23,.37-1.97,0-.89-.22-1.59-.67-2.15-.51-.63-1.21-1.18-2.08-1.63-.94-.49-2.03-.9-3.23-1.24-1.22-.34-2.53-.68-3.88-1-1.06-.24-2.16-.51-3.27-.79-1.1-.29-2.15-.61-3.14-.97-1.02-.37-1.98-.81-2.85-1.3-.92-.52-1.72-1.16-2.4-1.89-.69-.75-1.24-1.64-1.63-2.63-.39-.99-.58-2.15-.58-3.44,0-1.51,.35-2.96,1.03-4.32,.67-1.34,1.64-2.54,2.88-3.54,1.21-.99,2.68-1.79,4.35-2.37,1.66-.58,3.54-.87,5.56-.87s3.87,.27,5.62,.8c1.78,.54,3.36,1.33,4.69,2.36,1.36,1.05,2.45,2.35,3.24,3.86,.8,1.53,1.21,3.28,1.21,5.21v1.14h-5.76v-1.14c0-1.01-.22-1.88-.65-2.67-.45-.8-1.07-1.49-1.84-2.04-.8-.58-1.76-1.02-2.85-1.33-1.13-.31-2.36-.47-3.65-.47s-2.42,.16-3.44,.47c-1,.31-1.86,.73-2.56,1.25-.67,.5-1.19,1.08-1.55,1.73-.35,.63-.52,1.26-.52,1.93,0,.74,.2,1.34,.62,1.82,.49,.57,1.18,1.08,2.02,1.5,.91,.45,1.95,.85,3.11,1.18,1.19,.34,2.43,.66,3.69,.96,1.11,.28,2.18,.54,3.27,.83,1.11,.29,2.2,.64,3.23,1.04,1.05,.4,2.05,.87,2.95,1.4,.96,.56,1.8,1.23,2.51,2,.72,.79,1.3,1.71,1.71,2.74,.42,1.04,.62,2.23,.62,3.56,0,1.47-.24,2.82-.73,4Z"/></g><path class="cls-3" d="M540,87.1c-.48,1.16-1.12,2.21-1.91,3.1-.78,.89-1.69,1.65-2.7,2.28-.98,.61-2.01,1.1-3.07,1.49-1.04,.38-2.1,.66-3.16,.84-1.06,.18-2.04,.26-2.94,.26-1.41,0-2.8-.15-4.14-.45-1.34-.3-2.62-.74-3.81-1.31-1.2-.57-2.31-1.26-3.31-2.05-1.01-.8-1.9-1.71-2.63-2.72-.74-1.01-1.32-2.12-1.73-3.29-.42-1.19-.63-2.46-.63-3.77v-1.13h5.77v1.13c0,1.09,.26,2.07,.8,3,.56,.96,1.31,1.8,2.26,2.51,.96,.72,2.1,1.3,3.38,1.72,1.27,.41,2.64,.63,4.05,.63,.57,0,1.19-.05,1.84-.16,.66-.11,1.34-.27,2.02-.5,.65-.21,1.29-.5,1.9-.85,.59-.34,1.11-.75,1.56-1.22,.43-.45,.78-.98,1.04-1.56,.25-.57,.37-1.23,.37-1.97,0-.89-.22-1.59-.67-2.15-.51-.63-1.21-1.18-2.08-1.63-.94-.49-2.03-.9-3.23-1.24-1.22-.34-2.53-.68-3.88-1-1.06-.24-2.16-.51-3.27-.79-1.1-.29-2.15-.61-3.14-.97-1.02-.37-1.98-.81-2.85-1.3-.92-.52-1.72-1.16-2.4-1.89-.69-.75-1.24-1.64-1.63-2.63-.39-.99-.58-2.15-.58-3.44,0-1.51,.35-2.96,1.03-4.32,.67-1.34,1.64-2.54,2.88-3.54,1.21-.99,2.68-1.79,4.35-2.37,1.66-.58,3.54-.87,5.56-.87s3.87,.27,5.62,.8c1.78,.54,3.36,1.33,4.69,2.36,1.36,1.05,2.45,2.35,3.24,3.86,.8,1.53,1.21,3.28,1.21,5.21v1.14h-5.76v-1.14c0-1.01-.22-1.88-.65-2.67-.45-.8-1.07-1.49-1.84-2.04-.8-.58-1.76-1.02-2.85-1.33-1.13-.31-2.36-.47-3.65-.47s-2.42,.16-3.44,.47c-1,.31-1.86,.73-2.56,1.25-.67,.5-1.19,1.08-1.55,1.73-.35,.63-.52,1.26-.52,1.93,0,.74,.2,1.34,.62,1.82,.49,.57,1.18,1.08,2.02,1.5,.91,.45,1.95,.85,3.11,1.18,1.19,.34,2.43,.66,3.69,.96,1.11,.28,2.18,.54,3.27,.83,1.11,.29,2.2,.64,3.23,1.04,1.05,.4,2.05,.87,2.95,1.4,.96,.56,1.8,1.23,2.51,2,.72,.79,1.3,1.71,1.71,2.74,.42,1.04,.62,2.23,.62,3.56,0,1.47-.24,2.82-.73,4Z"/><line class="cls-4" x1="393.03" y1="3.19" x2="393.03" y2="95.82"/></svg>