<?xml version="1.0" encoding="UTF-8"?><svg id="Layer_1" xmlns="http://www.w3.org/2000/svg" viewBox="0 0 467.88 99.21"><defs><style>.cls-1{fill:#fff;}.cls-2{fill:#61a60e;}</style></defs><path class="cls-1" d="M46.96,38.82h31.47v1.53c0,20.24-17.75,36.07-37.6,36.07S2.65,60.78,2.65,39.49,20.4,2.56,40.45,2.56c17.84,0,30.79,12.09,34.43,22.25h-15.73c-3.07-4.7-9.59-9.98-18.99-9.98-16.02,0-24.36,13.62-24.36,24.75s8.15,24.56,25.04,24.56c8.73,0,16.88-4.8,21.01-13.05h-14.87v-12.28Z"/><path class="cls-1" d="M95.59,54.64c.67,7.1,5.37,9.5,9.4,9.5,5.18,0,9.78-3.55,9.78-8.92,0-7.29-4.7-8.63-13.52-11.99-5.47-2.11-16.88-5.47-16.88-20.43,0-11.32,8.82-20.24,20.81-20.24,8.25,0,20.33,5.76,21.01,20.24h-13.43c-.58-6.33-4.41-7.96-7.96-7.96-4.12,0-7.29,2.97-7.29,7.19,0,6.14,4.6,7.48,11.8,9.88,5.85,1.92,18.61,6.43,18.61,21.87s-11.89,22.64-23.02,22.64c-9.11,0-22.35-6.14-23.12-21.77h13.81Z"/><path class="cls-1" d="M216.44,54.64c.67,7.1,5.37,9.5,9.4,9.5,5.18,0,9.78-3.55,9.78-8.92,0-7.29-4.7-8.63-13.52-11.99-5.47-2.11-16.88-5.47-16.88-20.43,0-11.32,8.82-20.24,20.81-20.24,8.25,0,20.33,5.76,21.01,20.24h-13.43c-.58-6.33-4.41-7.96-7.96-7.96-4.12,0-7.29,2.97-7.29,7.19,0,6.14,4.6,7.48,11.8,9.88,5.85,1.92,18.61,6.43,18.61,21.87s-11.89,22.64-23.02,22.64c-9.11,0-22.35-6.14-23.12-21.77h13.81Z"/><path class="cls-2" d="M311.1,21.74v43.45c0,25.61-18.99,31.46-29.06,31.46-10.94,0-22.16-5.76-26.76-17.65h14.58c4.99,5.95,11.13,5.95,13.14,5.95,7.19,0,15.63-4.99,16.31-16.59l-.19-.19c-1.73,2.4-6.62,8.54-17.46,8.54-12.95,0-27.24-11.03-27.24-28.87,0-16.69,13.62-27.91,27.15-27.91,10.94,0,15.54,6.24,16.98,8.34h.19v-6.52h12.37Zm-28.39,9.88c-7.67,0-15.54,6.24-15.54,16.31,0,10.84,8.15,17.07,15.92,17.07s15.25-6.52,15.25-17.17c0-7.58-6.14-16.21-15.64-16.21Z"/><path class="cls-2" d="M373.44,74.98h-11.7v-6.62c-4.03,4.79-11.89,8.34-18.61,8.34-13.72,0-25.9-10.94-25.9-28.68,0-16.31,11.89-28.1,26.67-28.1,10.84,0,17.27,7.77,17.65,8.54h.19v-6.72h11.7v53.24Zm-27.62-43.36c-10.46,0-15.83,9.02-15.83,16.98,0,9.02,6.71,16.4,15.83,16.4s15.54-6.91,15.54-16.79c0-11.03-7.96-16.6-15.54-16.6Z"/><path class="cls-2" d="M386.19,33.06h-6.23v-11.32h6.23V4h12.76V21.74h7.67v11.32h-7.67v41.92h-12.76V33.06Z"/><path class="cls-2" d="M423.12,54.07c.58,3.45,5.56,10.94,14.68,10.94,5.66,0,9.88-2.4,12.28-6.81h13.43c-3.07,9.59-13.14,18.51-25.71,18.51-16.21,0-28.1-12.66-28.1-28.2s11.13-28.58,28.01-28.58,27.53,14.29,27.53,27.72c0,2.49-.38,4.7-.77,6.43h-41.34Zm29.06-10.26c-1.44-8.54-7.58-12.18-14.39-12.18-5.18,0-12.66,2.3-15.06,12.18h29.45Z"/><polygon class="cls-1" points="170.98 4 160.71 4 131.17 74.98 145.66 74.98 165.7 22.51 165.89 22.51 173.95 44.28 162.98 44.28 158.26 56.66 178.65 56.66 186.23 74.98 200.71 74.98 170.98 4"/></svg>