<?xml version="1.0" encoding="UTF-8"?><svg id="Layer_1" xmlns="http://www.w3.org/2000/svg" viewBox="0 0 335.66 169.67"><defs><style>.cls-1{fill:#fff;}.cls-2{fill:#73a22d;}.cls-3{fill:#009f53;}</style></defs><g><path class="cls-3" d="M147.48,50.22h0s-.01,0-.02,.01h.01Z"/><path class="cls-2" d="M149.69,81.97c3.32-1.07,4.7-.42,6.62,.48,1.83,.87,4.12,1.95,8.88,1.7l.34-.04,.02-.79c0-6.48-.76-12.78-2.18-18.82-3.51,1.26-6.07,3.36-7.59,6.29-2.65,5.05-14.92,9.32-17.85,7.86l-.28-.22-.14-.16c-.13-.3-.13-.75,.21-1.46,1.7-3.53,2.77-7.35,3.25-11.23,.11-.84,.13-1.69,.23-2.53,.03-.28,.12-.57,.35-.75,.19-.15,.43-.19,.66-.23,3.83-.62,7.64-1.22,11.37-2.29,2.61-.75,5.16-1.69,7.62-2.84-1.99-5.8-4.6-11.31-7.77-16.43-.4,1.17-.84,2.33-1.34,3.46-.23,.52-.47,1.04-.72,1.55-.17,.35-.38,1.02-.72,1.23-.08,.05-.18,.08-.28,.1-1.26,.32-2.56,.22-3.84,.06l-1.23-.2-.44-.07-1.28-.25c-1.43-.28-2.87-.59-4.32-.91-1.22-.27-2.45-.53-3.67-.77-.68-.13-1.36-.25-2.04-.37-.4-.07-1.48-.05-1.73-.41-.05-.07-.07-.16-.09-.25-.1-.62,.19-1.14,.47-1.67,.24-.45,.49-.9,.75-1.34,.39-.66,.79-1.32,1.21-1.97,.35-.55,.63-1.12,1.21-1.46,1.46-.87,3.31-.77,4.94-.79,2.87-.04,6.12-.11,8.71-2.41-2.95-3.9-6.24-7.54-9.83-10.85-1.13,2.82-2.92,5.74-5.43,8.97-.57,.72-1.15,1.43-1.72,2.13-2.03,2.49-3.85,5.09-5.57,7.8-.08,.13-.16,.25-.26,.36-.32,.33-.83,.43-1.26,.56-.55,.16-1.12,.24-1.68,.33-1.04,.17-2.07,.37-3.1,.6-2.05,.47-4.07,1.07-6.02,1.87-1.14,.47-2.2,1.21-3.44,1.42-.34,.06-.68,.07-1.01-.02-.64-.18-1.11-.73-1.36-1.35-.62-1.54-.34-3.5-.05-5.09,.37-2.01,.99-3.98,1.75-5.88l.03-.06c1.83-4.57,5.16-10.37,10.53-12.05,2.43-.74,4.44-.6,6.36-.47,1.67,.12,3.27,.23,5-.22,1.06-.28,2.16-.76,3.34-1.6l.41-.33c-6.89-5.68-14.74-10.24-23.25-13.42l-.07,1.01-.04,.52c-.06,.67-.06,1.32-.06,1.97l.05,.69,.06,1.01c.84,7.42-1.16,10.24-3.66,13.83-1.61,2.31-3.45,4.92-4.79,9.21-.36,1.15-.73,2.48-1.75,3.22-.05,.04-.11,.08-.17,.09-.28,.04-.76-.4-.95-.58-.3-.28-.52-.62-.68-1-.24-.54-.42-1.11-.57-1.69-.4-1.5-.6-3.05-.7-4.6-.22-3.56,.12-7.22,1.22-10.62,.33-.99,.71-1.96,1.17-2.86,.97-1.91,2.08-3.82,3.16-5.67,.84-1.46,1.66-2.92,2.43-4.35,.3-.57,.61-1.14,.91-1.71-4.97-1.54-10.12-2.6-15.44-3.17h0c.62,2.69,1.93,4.89,3.07,6.83,.95,1.62,2.43,4.05,2.22,4.7-.37,.83-1.02,1.52-1.49,2.6-1.71,4.1-2.95,7.91-3.05,12.01,.01,.17-.03,1.24-.65,1.77-1.81,1.68-3.66,2.99-5.49,3.9l-.76,.38c-.63,.27-.86,.11-.95,.04-1.09-.84-.42-5.66,.28-10.75,.38-2.75,.82-5.85,1.05-8.81,.2-2.65,.16-5.3-.07-7.96-.14-1.71-.35-3.4-.67-5.14-.76-.01-1.51-.02-2.26-.02-5.01,0-9.92,.45-14.68,1.32-.03,.98,0,1.88,.06,2.71,.46,5.8,3.21,7.94,5.85,9.65l.62,.4c.53,.34,1.07,.68,1.56,1.04,1.52,1.12,2.82,2.46,3.28,4.87,.47,2.36,.3,5.22-.19,8.36-.02,.25-.14,1.09-.74,1.08-.26,0-.56-.36-1.02-1.03l-.07-.1c-3.26-4.98-8.54-10.34-16.88-14.18h-.04s-.04-.03-.04-.03l-.36-.17c-.36-.21-.48-.47-.13-1.2,.97-2.33,2.09-5.32,1.02-9.79-7.17,1.98-13.95,4.9-20.19,8.65h.07c3.34,1.14,6.19,2.64,8.42,4.47,5.65,4.65,9.6,8.4,8.81,14.31-.2,1.35-.57,2.17-1.21,2.55-.31,.2-.7,.3-1.16,.32-1.46,.02-3.6-.72-6.48-1.71-1.55-.53-3.3-1.14-5.27-1.74-5.57-1.69-6.5-4.47-7.58-7.7-.6-1.8-1.34-3.79-2.79-5.68-4.95,3.74-9.46,8.03-13.45,12.78,2.71,.36,5.28,.74,7.81,1.17,5.11,.88,10.08,2.07,15.99,4.36l.6,.26c.35,.2,.87,.56,.87,1.06,0,3.23,.16,6.46,.51,9.68,.19,1.76,.43,3.51,.75,5.25,.17,.93,.4,1.85,.63,2.77,.08,.32,.74,2.37,.44,2.54-.04,.02-.09,.02-.13,.02-1.25-.07-2.49-.8-3.65-1.22-1.48-.54-2.97-1.07-4.49-1.49-.12-.03-.23-.06-.35-.09l-.99-.28c-9.37-2.77-11.71-6.76-14.19-10.98-1.68-2.85-3.42-5.81-7.48-8.33-3.99,5.54-7.31,11.58-9.85,18.03,3.45,1.92,7.44,2.47,11.34,2.22,1.16-.07,2.32-.22,3.47-.4s2.38-.65,3.52-.36c.08,.02,.16,.04,.23,.08,.31,.15,.57,.46,.85,.67,.29,.22,.6,.43,.9,.63,.72,.47,1.48,.88,2.26,1.26,1.76,.86,3.61,1.54,5.5,2.02l.18,.06c.38,.17,.24,.62-.38,.87l-.57,.2c-7.64,2.44-19.25,4.41-29.46-1.05-1.52,5.1-2.57,10.4-3.09,15.86,2.24-.35,4.09-1.1,5.88-1.98,.62-.29,1.22-.61,1.84-.92,.66-.35,1.34-.7,2.03-1.05,3.31-1.6,7.4-3.12,14.2-3.44,.51-.02,1.02-.1,1.53-.04,.06,0,.12,.01,.18,.04,.06,.03,.11,.07,.16,.12,.72,.71,1.23,1.73,1.82,2.55,.68,.95,1.38,1.88,2.1,2.8,.59,.75,2.15,2.75,2.24,2.87,.24,.37,.87,1.31,.41,1.56l-.39,.16c-.69,.18-1.36,.36-2.06,.56-5.86,1.63-11.92,3.3-19.23,3.43-3.57,.04-7.24-.39-11.07-1.31,0,.81-.02,1.62-.02,2.43,0,3.95,.28,7.84,.82,11.65,3.38-2.33,7.09-4.14,10.95-5.54,.93-.34,1.87-.65,2.81-.94,.9-.28,1.78-.56,2.7-.77,.04,0,.07-.02,.11,0,.03,0,.05,.03,.07,.05,.41,.42,.23,.72,.07,1.21-.74,2.15-1.2,4.88-1.49,7.52-.16,1.45-.15,2.92-.39,4.35-.05,.3-.13,.62-.36,.82-.14,.12-.33,.18-.51,.23-2.16,.6-4.56,.36-6.77,.24-1.91-.11-3.9-.21-5.83,.05,1.37,5.82,3.37,11.4,5.92,16.67,1.8-2.47,3.72-4.72,5.75-6.76,3.46-3.46,7.23-6.32,11.3-8.52l.18-.1c.26-.06,.66-.13,1.11,.07,.59,.24,1.36,1.01,1.81,1.32,2.48,1.94,6.13,4.19,10.12,6.2,.31,.16,2.46,1.34,2.88,1.62,.55,.37,1.06,.84,.52,1.04-.62,.21-1.09,.37-1.09,.37-1.18,.39-3.89,1.29-5.11,1.72l-2.32,.81c-2.05,.72-4.12,1.31-6.13,1.88-4.75,1.34-9.22,2.62-13.25,5.49-.73,.51-1.41,1.07-2.06,1.65,2.73,4.51,5.9,8.73,9.43,12.61,.25-.28,.54-.68,.86-1.15,1.12-1.62,2.71-4.38,4.34-6.81,1.96-2.91,3.99-5.3,5.38-4.63,.42,.19,.78,.68,.88,1.12,.28,1.17-.23,2.3-.78,3.31-.26,.51-.58,.98-.88,1.47-.36,.53-.75,1.02-1.12,1.53-1.57,2.02-3.31,3.9-5.04,5.77l-1.45,1.69c4.24,4.32,8.97,8.14,14.08,11.43v-18.63h.01c0-8.63,7-15.63,15.63-15.63s15.63,7,15.63,15.63v34.66l25.42-21.84,.08-.1v-12.72h.01c0-8.63,6.99-15.63,15.63-15.63s15.63,7,15.63,15.63v18.85c6.22-3.96,11.91-8.7,16.84-14.14-4.21,.75-6.9-3.3-8.29-7.05-.63-1.72-.97-3.36-1.05-4.43-.03-.51,.11-.86,.28-1.1l.13-.12,.15-.11,.08-.06,.16-.05,.14-.04h.12c4.01-.46,9.02,7.55,11.02,9.76,4.96-6.1,9.08-12.92,12.13-20.31-3.75,.29-7.43,1.37-10.95,2.66-1.19,.44-2.37,.91-3.53,1.41-.89,.38-1.77,.8-2.72,1-.95,.2-1.99,.16-2.97,.17-1.74,.01-3.48-.11-5.19-.43-2.32-.43-4.52-1.25-6.57-2.4-.95-.53-1.88-1.18-2.91-1.56-2.52-.91-2.87-2.6-.77-2.88,1.29-.17,5.53-.74,8.6-1.14,.91-.23,2.08-.34,3.39-.45,2.72-.21,6.16-.51,9.17-2.07,.52-.28,1.02-.56,1.47-.83,.5-.31,1.29-.8,2.01-1.1,2.39-.91,11.05-3.9,14.2-1.76,1.4-5.01,2.32-10.23,2.74-15.58-2.44,.51-4.69,1.32-6.88,2.52-2.58,1.4-4.6,2.8-6.17,3.96h0c-.47,.36-1.17,.25-1.48,.19-1.29-.33-2.35-1.05-3.17-1.99-1.31-1.58-1.99-3.71-2.05-5.61-.08-2.59,.97-5.71,4.16-6.73M60.8,20.25c3.24,1.6,6.27,3.64,8.91,6.12,2.12,1.99,3.98,4.24,5.52,6.71,1.16,1.85,2.2,3.84,2.91,5.91,.13,.36,.1,.69,0,1.06-.57,2.08-1.03,4.2-1.47,6.31-.2,.95-.38,1.9-.54,2.85-.14,.86-.17,1.78-.75,2.48-.1,.12-.21,.23-.34,.29-.19,.08-.41,.05-.6-.03-.52-.23-.89-.72-1.23-1.16l-.75-.95c-2.96-3.79-6.05-9.71-7.05-13.27-.48-1.72-.78-3.4-1.09-5-.62-3.41-1.28-6.94-3.61-11.27l.07-.06Zm-9.91,19.64c.05-.21,.18-.4,.37-.51,.29-.16,.65-.07,.96,.04,1.72,.62,3.38,1.7,4.9,2.7,1.48,.97,2.89,2.04,4.22,3.2,2.5,2.18,4.72,4.67,6.66,7.36,1.8,2.5,3.36,5.17,4.73,7.93,.47,.95,.92,1.91,1.36,2.87,.21,.47,.42,.95,.63,1.43,.23,.53,.53,.98,.64,1.56,.01,.07,.02,.16-.03,.22-.13,.13-.65,.09-.82,.07-.29-.02-.52-.14-.79-.23-.6-.2-1.21-.37-1.81-.55l-.59-.16c-.91-.2-1.79-.41-2.64-.53-.87-.13-1.68-.22-2.48-.29-.97-.08-1.9-.13-2.74-.13-.73,0-1.39-.07-2.12,.03-.75,.1-1.53,.23-2.26-.02-.53-.19-.98-.56-1.39-.95-1.33-1.28-1.99-2.96-2.69-4.64-.77-1.85-1.43-3.74-1.98-5.67-.92-3.22-1.49-6.48-1.91-9.8-.07-.69-.13-1.38-.18-2.06-.04-.56-.19-1.3-.04-1.85Zm-19.9,27.5c-.15-.16-.03-.38,.12-.49,.13-.1,.3-.14,.46-.18,3.58-.83,7.1-2.32,10.36-4,.73-.37,1.36-.85,2.2-.87,.07,0,.13,0,.2,.01,.07,.02,.13,.05,.19,.09,3.37,2,6.46,4.25,9.11,7.15,2.04,2.23,3.79,4.72,5.23,7.37,.48,.88,1.16,1.71,1.18,2.77,0,.05,0,.11-.04,.15-.05,.05-.14,.05-.21,.03-.93-.17-1.78-.57-2.66-.91-.95-.37-1.92-.69-2.91-.95-1.97-.53-4.01-.82-6.05-.89-.32-.01-.63-.02-.95-.02-1.44,0-2.93,.11-4.48,.32l-.37,.03h-.1s-.21-.02-.21-.02l-.61-.16c-3.83-2.09-7.57-5.45-10.48-9.44m27.96,37.73c0,.05,0,.11-.02,.16-.09,.57-.52,1.04-1.01,1.33s-1.06,.44-1.61,.61c-1.03,.32-2.04,.73-3.09,.98-1,.24-2.07,.33-3.07,.04-.86-.25-1.72-.51-2.58-.78-1.84-.59-3.65-1.26-5.44-1.99-3.07-1.26-6.19-2.66-8.91-4.59,1.45-.44,10.03-2.8,18.03-.75,1.28,.33,2.53,.78,3.72,1.35,1.21,.58,2.64,1.24,3.49,2.32,.29,.37,.5,.84,.48,1.3Zm7.42-12.61s0,.09,0,.14c0,.03,0,.06,0,.09,0,.06-.01,.11-.02,.16,0,0,0,.01,0,.02,0,0,0,.01,0,.01l-.11,.22s-.26,.2-.26,.2c-.02,0-.03,.01-.05,.02-.07,.03-.13,.06-.21,.08-.03,0-.06,.02-.09,.02-.09,.02-.19,.04-.3,.06-.03,0-.06,0-.08,0-.09,0-.17,.01-.26,.01-.06,0-.12,0-.19,0-.03,0-.06,0-.09,0-1.1-.04-2.6-.41-4.25-.8-1.61-.37-3.33-.75-4.94-.85-1.19-.08-2.38-.15-3.49-.19-3.09-.1-6.19,.43-9.2,1.09-3.67,.81-7.27,1.91-10.81,3.16-3.54,1.26-7,2.73-10.4,4.31-.27,.13-.57,.21-.86,.14-.07-.02-.13-.05-.17-.1-.03-.05-.03-.12-.03-.18,.03-1.63,.43-3.33,.73-4.94,.34-1.79,.81-3.56,1.58-5.22,.29-.64,.63-1.25,1-1.84,.28-.45,.62-1.09,1.06-1.39,.18-.13,.41-.19,.62-.25,2.61-.7,5.27-1.23,7.88-1.93,11.66-3.04,26.46-3.34,31.41,3.1,.66,.88,1.18,2.29,1.41,3.49,.04,.18,.07,.36,.09,.53,0,0,0,.01,0,.02,.01,.08,.02,.15,.03,.23,0,.08,.02,.17,.02,.25,0,.03,0,.06,0,.08,0,.06,0,.12,0,.17,0,.03,0,.07,0,.1m12.76-11.56c-.09,1.09-.68,2.17-1.66,2.66-.42,.21-.9,.31-1.37,.35-2.27,.18-4.54-.84-6.38-2.1-4.84-3.31-8.38-9.53-7.24-11.23,2.12-2.74,10.72,2.03,14.46,5.56,1.23,1.16,2.27,2.84,2.21,4.59,0,.06,0,.11,0,.17Zm49.27-28.31c.19-.82,.39-1.64,.62-2.46,.1-.37,.2-.75,.32-1.12,.09-.3,.14-.73,.35-.96,.1-.11,.25-.17,.4-.21,.64-.17,1.36-.04,2.01,.02,.73,.06,1.47,.14,2.2,.23,1.49,.18,2.97,.41,4.45,.65,3.05,.49,6.07,.88,9.16,1.05,.82,.05-.29,1.21-.48,1.4-.59,.61-1.29,1.1-2,1.55-5.63,3.67-13.19,6.46-16.12,4.44-1.13-.8-1.44-2.35-.9-4.6m-43.35,17.52c-7.21-13.36-3.04-22.07,1.64-27.96,1.32-1.66,2.67-3.09,3.83-4.35l.42-.46,.23-.19,.14-.08c.32-.16,.94-.34,1.47,.15l.07,.08,.04,.06,.09,.12c.37,.75,.75,1.45,1.12,2.11,1.62,2.83,4.03,7.03,4.21,11.75,.07,2.15-.3,4.4-1.42,6.69-1.89,3.86-7.76,12.87-10.68,12.87-.48,0-.87-.24-1.16-.77m10.73,15.36l-.52,.98c-.68,1.22-1.54,2.63-2.76,3.38-.54,.33-1.22,.48-1.81,.25-.39-.15-.7-.46-.94-.8-.55-.81-.71-1.82-.64-2.8,.12-1.61,.72-3.22,1.36-4.69,2.28-4.83,5.51-10.62,9.94-17.57,.58-.92,1.2-1.86,1.82-2.84l.3-.41c.84-1.1,1.8-2.12,2.84-2.96,2.7-2.18,5.72-3.95,8.78-5.56,2.22-1.17,4.5-2.27,6.83-3.21,.57-.23,1.05-.41,1.68-.3,.05,0,.09,.02,.13,.04,.06,.03,.1,.1,.13,.16,.09,.2,.07,.44,.03,.66-.21,1.23-.7,2.46-1.05,3.66-.66,2.33-1.49,5.39-1.97,7.7-.18,.92-2.75,2.76-5.73,4.85-10.77,7.67-16.43,15.54-18.42,19.46m19.46-8.82c-.19,.77-.45,1.51-.69,2.27-.33,1.04-.66,2.08-.91,3.14-.4,1.8-.76,3.64-.9,5.42-.98,6.55,.57,16.95,.57,16.95-3.22-2.23-11.16,1.53-11.16,1.53-.7-1.22-.91-2.7-1.04-4.08-.15-1.57-.15-3.15-.09-4.72,.08-2.03,.24-4.11,.91-6.04,.53-1.53,1.3-2.96,2.2-4.3,.75-1.11,1.6-2.15,2.5-3.14,1.29-1.42,2.62-2.8,4.01-4.13,.66-.64,1.34-1.27,2.03-1.89,.34-.3,.67-.6,1.01-.9,.44-.39,.92-.79,1.53-.85,.04,0,.08,0,.11,.02,.06,.04,.05,.12,.04,.19-.04,.18-.08,.36-.12,.54Zm3.36,8.4l-.12,.02c-.25,0-.64-.19-.62-.69,0-.99,.04-2.03,.11-3.08,.32-3.29,1.11-6.57,1.87-9,.2-.67,.42-1.26,.59-1.76,.26-.49,.49-1.07,1.27-1.56,3.57-2.2,7.42-3.95,11.45-5.13,.74-.22,1.66-.62,2.43-.56,.06,0,.12,.01,.18,.05,.06,.04,.1,.1,.13,.17,.3,.63-.03,1.46-.18,2.1-.15,.63-.31,1.26-.5,1.88-.4,1.36-.89,2.7-1.48,3.99-1.31,2.87-3.15,5.53-5.54,7.61-1,.87-2.08,1.63-3.24,2.27-2.53,1.41-4.49,2.53-6.03,3.52l-.31,.18Zm27.16,14.76c.12,.12,.29,.2,.3,.38,0,.12-.04,.24-.09,.36-.33,.78-1.27,1.19-1.99,1.59-.82,.47-1.67,.88-2.56,1.19-1.59,.56-3.27,.87-4.95,1-3.07,.23-6.15-.12-9.2-.53-2.17-.29-4.47-.68-6.1-2.14-1.32-1.19-2.01-2.99-2.01-4.77,0-1.78,.66-3.52,1.69-4.96,1.49-2.1,3.75-3.61,6.21-4.36,2.47-.75,5.13-.75,7.64-.18,1.84,.41,3.7,1.2,4.81,2.73,.55,.76,.87,1.65,1.23,2.52,.56,1.36,1.22,2.69,2.05,3.92,.84,1.25,1.85,2.27,2.96,3.26"/></g><path class="cls-2" d="M235.12,117c.29-.18,.57-.37,.84-.56,1.26-.93,2.28-2.01,2.7-2.5,.07-.09,.15-.17,.22-.26,.47-.61,.89-1.25,1.26-1.93,1.55-3.07,1.62-6.56,1.62-6.56,0-.9-.09-1.74-.23-2.52-.02-.05-.05-.22-.05-.22-.03-.16-.06-.33-.1-.49-.02-.06-.12-.41-.14-.52-.03-.1-.06-.21-.09-.31-.77-2.39-2.05-4.39-3.85-6.01-1.26-1.1-2.58-1.9-3.85-2.48,0,0,0,0-.01,0-.21-.1-.42-.18-.62-.26-.2-.08-.39-.16-.6-.23-.05-.02-.1-.03-.15-.05-.33-.11-.66-.22-.99-.31-1.47-.42-3.04-.63-4.71-.63h-13.28v5.11h14.01c1.23,0,2.35,.26,3.38,.76,1.02,.51,1.91,1.17,2.65,1.99,.74,.82,1.34,1.77,1.79,2.87,.45,1.09,.67,2.2,.67,3.33s-.22,2.28-.67,3.36c-.45,1.07-1.04,2.03-1.79,2.87-.74,.84-1.63,1.51-2.65,2.02-1.02,.51-2.15,.76-3.38,.76h-7.7v-14.7l-5.82,6.89v24.67h5.82v-11.75h6.97c.52,0,1-.02,1.45-.05,.45-.04,.89-.09,1.34-.16l6.31,12.03h6.31l-7.2-13.82c.07-.07,.17-.13,.28-.16,.11-.04,.2-.09,.28-.16Z"/><polygon class="cls-2" points="184.65 96.5 194.52 96.5 194.52 131.15 200.36 131.15 200.36 96.5 208.04 96.5 208.04 91.15 189.07 91.15 184.65 96.5"/><path class="cls-2" d="M267.86,117.57c0,7.27-5.3,8.33-7.43,8.33s-7.43-1.06-7.43-8.33v-26.42l-5.73,6.69v19.89c0,4.46,1.49,7.69,3.98,10.08,2.44,2.02,5.57,3.34,9.18,3.34s6.74-1.33,9.18-3.34c2.49-2.39,3.98-5.62,3.98-10.08v-26.58h-5.73v26.42Z"/><polygon class="cls-2" points="309.77 96.51 319.64 96.51 319.64 131.15 325.48 131.15 325.48 96.51 333.59 96.51 333.59 91.17 314.19 91.17 309.77 96.51"/><g><path class="cls-1" d="M205.07,78.17c-11,0-19.92-8.92-19.92-19.92s8.92-19.92,19.92-19.92c7.98,0,14.86,4.7,18.04,11.47h-6.07c-2.64-3.68-6.94-6.09-11.82-6.09-8.03,0-14.54,6.51-14.54,14.54s6.51,14.54,14.54,14.54c6.34,0,11.71-4.06,13.7-9.72h-9.32v-4.98h15.38c0,.05,0,.11,0,.16,0,11-8.92,19.92-19.92,19.92Z"/><path class="cls-1" d="M261.5,70.37c-.48,1.16-1.12,2.2-1.9,3.09-.77,.89-1.68,1.65-2.69,2.27-.98,.6-2.01,1.1-3.06,1.48-1.04,.38-2.1,.66-3.15,.84-1.05,.18-2.04,.26-2.93,.26-1.41,0-2.8-.15-4.13-.45-1.33-.3-2.61-.74-3.8-1.3-1.19-.57-2.3-1.25-3.3-2.04-1.01-.8-1.89-1.71-2.62-2.71-.74-1.01-1.32-2.11-1.73-3.28-.42-1.19-.63-2.46-.63-3.75v-1.13h5.75v1.13c0,1.09,.26,2.07,.8,2.99,.55,.96,1.31,1.8,2.25,2.5,.97,.72,2.1,1.29,3.37,1.71,1.27,.41,2.63,.62,4.04,.62,.57,0,1.19-.05,1.84-.16,.66-.11,1.33-.27,2.01-.5,.65-.21,1.29-.5,1.89-.85,.58-.34,1.1-.75,1.56-1.21,.43-.45,.78-.97,1.04-1.56,.25-.57,.37-1.23,.37-1.96,0-.88-.22-1.59-.67-2.14-.51-.63-1.21-1.18-2.08-1.63-.94-.48-2.02-.9-3.22-1.23-1.22-.34-2.52-.68-3.87-1-1.06-.24-2.15-.51-3.25-.79-1.1-.28-2.15-.61-3.13-.97-1.02-.37-1.97-.81-2.84-1.3-.91-.52-1.72-1.16-2.39-1.89-.69-.75-1.24-1.63-1.62-2.62-.39-.99-.58-2.14-.58-3.43,0-1.5,.35-2.95,1.03-4.31,.67-1.34,1.64-2.53,2.87-3.53,1.21-.99,2.67-1.78,4.33-2.36,1.66-.58,3.53-.87,5.55-.87s3.86,.27,5.6,.79c1.78,.54,3.35,1.33,4.68,2.36,1.35,1.04,2.44,2.34,3.23,3.85,.8,1.53,1.2,3.27,1.2,5.19v1.14h-5.75v-1.14c0-1.01-.21-1.88-.65-2.66-.45-.8-1.06-1.48-1.83-2.04-.8-.57-1.75-1.02-2.85-1.32-1.13-.31-2.35-.47-3.64-.47s-2.41,.16-3.43,.47c-1,.31-1.85,.73-2.55,1.24-.67,.5-1.19,1.08-1.54,1.72-.35,.62-.51,1.25-.51,1.93,0,.74,.2,1.33,.62,1.81,.5,.57,1.17,1.08,2.01,1.5,.91,.45,1.95,.85,3.1,1.18,1.19,.34,2.42,.66,3.67,.96,1.11,.27,2.17,.54,3.26,.83,1.11,.29,2.2,.64,3.22,1.04,1.05,.4,2.04,.87,2.94,1.4,.95,.55,1.79,1.22,2.5,2,.72,.79,1.29,1.71,1.71,2.74,.41,1.03,.62,2.23,.62,3.55,0,1.47-.25,2.81-.73,3.99Z"/><polygon class="cls-1" points="294.07 78.17 289.85 66.43 278.41 66.43 280.34 61.1 287.93 61.1 282.45 45.87 282.33 45.87 270.6 78.17 264.38 78.17 279.71 38.33 285.01 38.33 300.35 78.17 294.07 78.17"/><path class="cls-1" d="M332.86,70.37c-.48,1.16-1.12,2.2-1.9,3.09-.77,.89-1.68,1.65-2.69,2.27-.97,.6-2.01,1.1-3.06,1.48-1.04,.38-2.1,.66-3.15,.84-1.05,.18-2.04,.26-2.93,.26-1.41,0-2.8-.15-4.12-.45-1.33-.3-2.61-.74-3.8-1.3-1.2-.57-2.3-1.25-3.3-2.04-1.01-.8-1.89-1.71-2.62-2.71-.73-1.01-1.32-2.11-1.73-3.28-.42-1.19-.63-2.46-.63-3.75v-1.13h5.75v1.13c0,1.09,.26,2.07,.79,2.99,.55,.96,1.31,1.8,2.25,2.5,.96,.72,2.1,1.29,3.37,1.71,1.27,.41,2.63,.62,4.04,.62,.57,0,1.19-.05,1.84-.16,.66-.11,1.34-.27,2.01-.5,.65-.21,1.29-.5,1.89-.85,.58-.34,1.11-.75,1.56-1.21,.43-.45,.78-.97,1.04-1.56,.25-.57,.37-1.23,.37-1.96,0-.88-.22-1.59-.67-2.14-.51-.63-1.21-1.18-2.08-1.63-.94-.48-2.02-.9-3.22-1.23-1.22-.34-2.52-.68-3.87-1-1.06-.24-2.15-.51-3.26-.79-1.1-.28-2.15-.61-3.13-.97-1.02-.37-1.98-.81-2.84-1.3-.91-.52-1.72-1.16-2.39-1.89-.69-.75-1.24-1.63-1.62-2.62-.39-.99-.58-2.14-.58-3.43,0-1.5,.35-2.95,1.03-4.31,.67-1.34,1.64-2.53,2.87-3.53,1.21-.99,2.67-1.78,4.34-2.36,1.66-.58,3.53-.87,5.54-.87s3.86,.27,5.61,.79c1.77,.54,3.35,1.33,4.68,2.36,1.36,1.04,2.44,2.34,3.23,3.85,.8,1.53,1.2,3.27,1.2,5.19v1.14h-5.75v-1.14c0-1.01-.22-1.88-.65-2.66-.44-.8-1.06-1.48-1.83-2.04-.8-.57-1.75-1.02-2.85-1.32-1.13-.31-2.35-.47-3.64-.47s-2.41,.16-3.42,.47c-1,.31-1.85,.73-2.55,1.24-.67,.5-1.18,1.08-1.54,1.72-.35,.62-.51,1.25-.51,1.93,0,.74,.2,1.33,.62,1.81,.49,.57,1.17,1.08,2.01,1.5,.91,.45,1.95,.85,3.1,1.18,1.19,.34,2.42,.66,3.67,.96,1.1,.27,2.17,.54,3.26,.83,1.11,.29,2.2,.64,3.22,1.04,1.05,.4,2.04,.87,2.94,1.4,.95,.55,1.79,1.22,2.5,2,.72,.79,1.3,1.71,1.71,2.74,.41,1.03,.62,2.23,.62,3.55,0,1.47-.24,2.81-.73,3.99Z"/></g><path class="cls-2" d="M309.04,123.2c-.48,1.16-1.12,2.2-1.9,3.09-.77,.89-1.68,1.65-2.69,2.27-.97,.6-2.01,1.1-3.06,1.48-1.04,.38-2.1,.66-3.15,.84-1.05,.18-2.04,.26-2.93,.26-1.41,0-2.8-.15-4.12-.45-1.33-.3-2.61-.74-3.8-1.3-1.2-.57-2.3-1.25-3.3-2.04-1.01-.8-1.89-1.71-2.62-2.71-.73-1.01-1.32-2.11-1.73-3.28-.42-1.19-.63-2.46-.63-3.75v-1.13h5.75v1.13c0,1.09,.26,2.07,.79,2.99,.55,.96,1.31,1.8,2.25,2.5,.96,.72,2.1,1.29,3.37,1.71,1.27,.41,2.63,.62,4.04,.62,.57,0,1.19-.05,1.84-.16,.66-.11,1.34-.27,2.01-.5,.65-.21,1.29-.5,1.89-.85,.58-.34,1.11-.75,1.56-1.21,.43-.45,.78-.97,1.04-1.56,.25-.57,.37-1.23,.37-1.96,0-.88-.22-1.59-.67-2.14-.51-.63-1.21-1.18-2.08-1.63-.94-.48-2.02-.9-3.22-1.23-1.22-.34-2.52-.68-3.87-1-1.06-.24-2.15-.51-3.26-.79-1.1-.28-2.15-.61-3.13-.97-1.02-.37-1.98-.81-2.84-1.3-.91-.52-1.72-1.16-2.39-1.89-.69-.75-1.24-1.63-1.62-2.62-.39-.99-.58-2.14-.58-3.43,0-1.5,.35-2.95,1.03-4.31,.67-1.34,1.64-2.53,2.87-3.53,1.21-.99,2.67-1.78,4.34-2.36,1.66-.58,3.53-.87,5.54-.87s3.86,.27,5.61,.79c1.77,.54,3.35,1.33,4.68,2.36,1.36,1.04,2.44,2.34,3.23,3.85,.8,1.53,1.2,3.27,1.2,5.19v1.14h-5.75v-1.14c0-1.01-.22-1.88-.65-2.66-.44-.8-1.06-1.48-1.83-2.04-.8-.57-1.75-1.02-2.85-1.32-1.13-.31-2.35-.47-3.64-.47s-2.41,.16-3.42,.47c-1,.31-1.85,.73-2.55,1.24-.67,.5-1.18,1.08-1.54,1.72-.35,.62-.51,1.25-.51,1.93,0,.74,.2,1.33,.62,1.81,.49,.57,1.17,1.08,2.01,1.5,.91,.45,1.95,.85,3.1,1.18,1.19,.34,2.42,.66,3.67,.96,1.1,.27,2.17,.54,3.26,.83,1.11,.29,2.2,.64,3.22,1.04,1.05,.4,2.04,.87,2.94,1.4,.95,.55,1.79,1.22,2.5,2,.72,.79,1.3,1.71,1.71,2.74,.41,1.03,.62,2.23,.62,3.55,0,1.47-.24,2.81-.73,3.99Z"/></svg>