<svg xmlns="http://www.w3.org/2000/svg" version="1.1" xmlns:xlink="http://www.w3.org/1999/xlink" xmlns:svgjs="http://svgjs.dev/svgjs" width="16.9" height="17.2"><svg xmlns="http://www.w3.org/2000/svg" version="1.1" viewBox="0 0 16.9 17.2">
  <defs>
    <style>
      .cls-1 {
        fill: #0571b3;
      }
    </style>
  </defs>
  <!-- Generator: Adobe Illustrator 28.7.2, SVG Export Plug-In . SVG Version: 1.2.0 Build 154)  -->
  <g>
    <g id="SvgjsG1001">
      <path class="cls-1" d="M15.2,8.4c.3-.1.5,0,.7,0,.2,0,.4.2.9.2h0s0,0,0,0c0-.7,0-1.3-.2-1.9-.4.1-.6.3-.8.6-.3.5-1.5.9-1.8.8h0s0,0,0,0c0,0,0,0,0-.1.2-.4.3-.7.3-1.1,0,0,0-.2,0-.3,0,0,0,0,0,0,0,0,0,0,0,0,.4,0,.8-.1,1.1-.2.3,0,.5-.2.8-.3-.2-.6-.5-1.1-.8-1.7,0,.1,0,.2-.1.3,0,0,0,.1,0,.2,0,0,0,.1,0,.1,0,0,0,0,0,0-.1,0-.3,0-.4,0h-.1s0,0,0,0h-.1c-.1,0-.3,0-.4-.1-.1,0-.2,0-.4,0,0,0-.1,0-.2,0,0,0-.1,0-.2,0,0,0,0,0,0,0,0,0,0-.1,0-.2,0,0,0,0,0-.1,0,0,0-.1.1-.2,0,0,0-.1.1-.1.1,0,.3,0,.5,0,.3,0,.6,0,.9-.2-.3-.4-.6-.8-1-1.1-.1.3-.3.6-.5.9,0,0-.1.1-.2.2-.2.3-.4.5-.6.8,0,0,0,0,0,0,0,0,0,0-.1,0,0,0-.1,0-.2,0-.1,0-.2,0-.3,0-.2,0-.4.1-.6.2-.1,0-.2.1-.3.1,0,0,0,0-.1,0,0,0-.1,0-.1-.1,0-.2,0-.4,0-.5,0-.2,0-.4.2-.6,0,0,0,0,0,0,.2-.5.5-1,1.1-1.2.2,0,.4,0,.6,0,.2,0,.3,0,.5,0,.1,0,.2,0,.3-.2h0c-.7-.6-1.5-1.1-2.3-1.4h0c0,.1,0,.2,0,.2,0,0,0,.1,0,.2h0c0,0,0,.2,0,.2,0,.7-.1,1-.4,1.4-.2.2-.3.5-.5.9,0,.1,0,.2-.2.3,0,0,0,0,0,0,0,0,0,0,0,0,0,0,0,0,0-.1,0,0,0-.1,0-.2,0-.2,0-.3,0-.5,0-.4,0-.7.1-1.1,0-.1,0-.2.1-.3,0-.2.2-.4.3-.6,0-.1.2-.3.2-.4,0,0,0-.1,0-.2-.5-.2-1-.3-1.6-.3h0c0,.3.2.5.3.7,0,.2.2.4.2.5,0,0-.1.2-.1.3-.2.4-.3.8-.3,1.2,0,0,0,.1,0,.2-.2.2-.4.3-.6.4h0c0,0,0,0,0,0-.1,0,0-.6,0-1.1,0-.3,0-.6.1-.9,0-.3,0-.5,0-.8,0-.2,0-.3,0-.5,0,0-.2,0-.2,0-.5,0-1,0-1.5.1,0,0,0,.2,0,.3,0,.6.3.8.6,1h0c0,0,.1.1.2.1.2.1.3.2.3.5,0,.2,0,.5,0,.8,0,0,0,.1,0,.1,0,0,0,0-.1-.1h0c-.3-.5-.9-1.1-1.7-1.4h0s0,0,0,0h0s0,0,0-.1c0-.2.2-.5.1-1-.7.2-1.4.5-2,.9h0c.3.1.6.3.8.5.6.5,1,.8.9,1.4,0,.1,0,.2-.1.3,0,0,0,0-.1,0-.1,0-.4,0-.7-.2-.2,0-.3-.1-.5-.2-.6-.2-.7-.5-.8-.8,0-.2-.1-.4-.3-.6-.5.4-1,.8-1.4,1.3.3,0,.5,0,.8.1.5,0,1,.2,1.6.4h0s0,0,0,.1c0,.3,0,.7,0,1,0,.2,0,.4,0,.5,0,0,0,.2,0,.3,0,0,0,.2,0,.3,0,0,0,0,0,0-.1,0-.3,0-.4-.1-.1,0-.3-.1-.5-.2,0,0,0,0,0,0h0c-.9-.3-1.2-.7-1.4-1.1-.2-.3-.3-.6-.8-.8-.4.6-.7,1.2-1,1.8.3.2.7.2,1.1.2.1,0,.2,0,.3,0,.1,0,.2,0,.4,0,0,0,0,0,0,0,0,0,0,0,0,0,0,0,0,0,0,0,0,0,.1,0,.2.1.2,0,.4.2.6.2h0s0,0,0,0h0c-.8.3-1.9.5-3,0-.2.5-.3,1-.3,1.6.2,0,.4-.1.6-.2,0,0,.1,0,.2,0,0,0,.1,0,.2-.1.3-.2.7-.3,1.4-.3,0,0,.1,0,.2,0,0,0,0,0,0,0,0,0,0,0,0,0,0,0,.1.2.2.3,0,0,.1.2.2.3,0,0,.2.3.2.3,0,0,0,.1,0,.2h0c0,0-.1,0-.2,0-.6.2-1.2.3-1.9.3-.4,0-.7,0-1.1-.1,0,0,0,.2,0,.2,0,.4,0,.8,0,1.2.3-.2.7-.4,1.1-.6,0,0,.2,0,.3,0,0,0,.2,0,.3,0,0,0,0,0,0,0,0,0,0,0,0,0,0,0,0,0,0,.1,0,.2-.1.5-.1.8,0,.1,0,.3,0,.4,0,0,0,0,0,0,0,0,0,0,0,0-.2,0-.5,0-.7,0-.2,0-.4,0-.6,0,.1.6.3,1.1.6,1.7.2-.2.4-.5.6-.7.3-.3.7-.6,1.1-.9h0s0,0,.1,0c0,0,.1.1.2.1.2.2.6.4,1,.6,0,0,.2.1.3.2,0,0,.1,0,0,.1,0,0-.1,0-.1,0-.1,0-.4.1-.5.2h-.2c-.2.2-.4.2-.6.3-.5.1-.9.3-1.3.6,0,0-.1.1-.2.2.3.5.6.9,1,1.3,0,0,0,0,0-.1.1-.2.3-.4.4-.7.2-.3.4-.5.5-.5,0,0,0,0,0,.1,0,.1,0,.2,0,.3,0,0,0,0,0,.1,0,0,0,.1-.1.2-.2.2-.3.4-.5.6v.2c.3.4.8.8,1.3,1.2v-1.9h0c0-.9.7-1.6,1.6-1.6s1.6.7,1.6,1.6v2.8h0v.7l2.6-2.2h0v-1.3h0c0-.9.7-1.6,1.6-1.6s1.6.7,1.6,1.6v1.9c.6-.4,1.2-.9,1.7-1.4-.4,0-.7-.3-.8-.7,0-.2,0-.3-.1-.4,0,0,0,0,0-.1h0s0,0,0,0h0s0,0,0,0h0s0,0,0,0c.4,0,.9.8,1.1,1,.5-.6.9-1.3,1.2-2-.4,0-.7.1-1.1.3-.1,0-.2,0-.4.1,0,0-.2,0-.3.1,0,0-.2,0-.3,0-.2,0-.4,0-.5,0-.2,0-.5-.1-.7-.2,0,0-.2-.1-.3-.2-.3,0-.3-.3,0-.3.1,0,.6,0,.9-.1,0,0,.2,0,.3,0,.3,0,.6,0,.9-.2,0,0,.1,0,.1,0,0,0,.1,0,.2-.1.2,0,1.1-.4,1.4-.2.1-.5.2-1,.3-1.6-.2,0-.5.1-.7.3-.3.1-.5.3-.6.4h0s-.1,0-.1,0c-.1,0-.2-.1-.3-.2-.1-.2-.2-.4-.2-.6,0-.3,0-.6.4-.7M6.2,2.2c.3.2.6.4.9.6.2.2.4.4.6.7.1.2.2.4.3.6,0,0,0,0,0,.1,0,.2-.1.4-.1.6,0,0,0,.2,0,.3,0,0,0,.2,0,.3,0,0,0,0,0,0,0,0,0,0,0,0,0,0,0,0-.1-.1h0c-.3-.5-.6-1.1-.7-1.4,0-.2,0-.3-.1-.5,0-.3-.1-.7-.4-1.1h0ZM5.2,4.2s0,0,0,0c0,0,0,0,0,0,.2,0,.3.2.5.3.1,0,.3.2.4.3.3.2.5.5.7.7.2.3.3.5.5.8,0,0,0,.2.1.3,0,0,0,0,0,.1,0,0,0,0,0,.2,0,0,0,0,0,0,0,0,0,0,0,0,0,0,0,0,0,0,0,0-.1,0-.2,0h0c0,0-.2,0-.3,0,0,0-.2,0-.2,0,0,0-.2,0-.3,0,0,0-.1,0-.2,0,0,0-.2,0-.2,0,0,0,0,0-.1,0-.1-.1-.2-.3-.3-.5,0-.2-.1-.4-.2-.6,0-.3-.2-.7-.2-1,0,0,0-.1,0-.2,0,0,0-.1,0-.2M3.2,7s0,0,0,0c0,0,0,0,0,0,.4,0,.7-.2,1-.4,0,0,.1,0,.2,0,0,0,0,0,0,0,0,0,0,0,0,0,.3.2.7.4.9.7.2.2.4.5.5.7,0,0,.1.2.1.3,0,0,0,0,0,0,0,0,0,0,0,0,0,0-.2,0-.3,0,0,0-.2,0-.3,0-.2,0-.4,0-.6,0,0,0,0,0,0,0-.1,0-.3,0-.5,0h0s0,0,0,0h0s0,0,0,0c-.4-.2-.8-.5-1.1-1M6,10.8s0,0,0,0c0,0,0,.1-.1.1,0,0-.1,0-.2,0-.1,0-.2,0-.3,0-.1,0-.2,0-.3,0,0,0-.2,0-.3,0-.2,0-.4-.1-.5-.2-.3-.1-.6-.3-.9-.5.1,0,1-.3,1.8,0,.1,0,.3,0,.4.1.1,0,.3.1.4.2,0,0,0,0,0,.1M6.8,9.5s0,0,0,0c0,0,0,0,0,0,0,0,0,0,0,0,0,0,0,0,0,0,0,0,0,0,0,0h0s0,0,0,0c0,0,0,0,0,0,0,0,0,0,0,0,0,0,0,0,0,0,0,0,0,0,0,0,0,0,0,0,0,0,0,0,0,0,0,0h0s0,0,0,0c-.1,0-.3,0-.4,0-.2,0-.3,0-.5,0-.1,0-.2,0-.4,0-.3,0-.6,0-.9.1-.4,0-.7.2-1.1.3-.4.1-.7.3-1,.4,0,0,0,0,0,0,0,0,0,0,0,0,0,0,0,0,0,0,0-.2,0-.3,0-.5,0-.2,0-.4.2-.5,0,0,0-.1.1-.2,0,0,0-.1.1-.1,0,0,0,0,0,0,.3,0,.5-.1.8-.2,1.2-.3,2.7-.3,3.2.3,0,0,.1.2.1.4,0,0,0,0,0,0,0,0,0,0,0,0,0,0,0,0,0,0,0,0,0,0,0,0,0,0,0,0,0,0,0,0,0,0,0,0s0,0,0,0M8.1,8.3c0,.1,0,.2-.2.3,0,0,0,0-.1,0-.2,0-.5,0-.6-.2-.5-.3-.8-1-.7-1.1.2-.3,1.1.2,1.5.6.1.1.2.3.2.5,0,0,0,0,0,0M13,5.5c0,0,0-.2,0-.2,0,0,0,0,0-.1,0,0,0,0,0,0,0,0,0,0,0,0,0,0,.1,0,.2,0,0,0,.1,0,.2,0,.1,0,.3,0,.4,0,.3,0,.6,0,.9.1,0,0,0,.1,0,.1,0,0-.1.1-.2.2-.6.4-1.3.7-1.6.4-.1,0-.1-.2,0-.5M8.7,7.2c-.7-1.3-.3-2.2.2-2.8.1-.2.3-.3.4-.4h0s0,0,0,0h0s0,0,.1,0h0s0,0,0,0h0c0,0,0,.2.1.2.2.3.4.7.4,1.2,0,.2,0,.4-.1.7-.2.4-.8,1.3-1.1,1.3s0,0-.1,0M9.8,8.8h0c0,.2-.2.4-.3.4,0,0-.1,0-.2,0,0,0,0,0,0,0,0,0,0-.2,0-.3,0-.2,0-.3.1-.5.2-.5.6-1.1,1-1.8,0,0,.1-.2.2-.3h0c0-.2.2-.3.3-.3.3-.2.6-.4.9-.6.2-.1.5-.2.7-.3,0,0,.1,0,.2,0,0,0,0,0,0,0,0,0,0,0,0,0,0,0,0,0,0,0,0,.1,0,.2-.1.4,0,.2-.1.5-.2.8,0,0-.3.3-.6.5-1.1.8-1.7,1.6-1.9,2M11.7,7.9c0,0,0,.2,0,.2,0,.1,0,.2,0,.3,0,.2,0,.4,0,.5,0,.7,0,1.7,0,1.7-.3-.2-1.1.2-1.1.2,0-.1,0-.3-.1-.4,0-.2,0-.3,0-.5,0-.2,0-.4,0-.6,0-.2.1-.3.2-.4,0-.1.2-.2.3-.3.1-.1.3-.3.4-.4,0,0,.1-.1.2-.2,0,0,0,0,.1,0,0,0,0,0,.2,0,0,0,0,0,0,0,0,0,0,0,0,0,0,0,0,0,0,0M12.1,8.7h0s0,0,0,0c0-.1,0-.2,0-.3,0-.3.1-.7.2-.9,0,0,0-.1,0-.2,0,0,0-.1.1-.2.4-.2.7-.4,1.2-.5,0,0,.2,0,.2,0,0,0,0,0,0,0,0,0,0,0,0,0,0,0,0,.1,0,.2,0,0,0,.1,0,.2,0,.1,0,.3-.1.4-.1.3-.3.6-.6.8-.1,0-.2.2-.3.2-.3.1-.5.3-.6.4h0ZM14.8,10.2s0,0,0,0c0,0,0,0,0,0,0,0-.1.1-.2.2,0,0-.2,0-.3.1-.2,0-.3,0-.5.1-.3,0-.6,0-.9,0-.2,0-.5,0-.6-.2-.1-.1-.2-.3-.2-.5,0-.2,0-.4.2-.5.2-.2.4-.4.6-.4.2,0,.5,0,.8,0,.2,0,.4.1.5.3,0,0,0,.2.1.3,0,.1.1.3.2.4,0,.1.2.2.3.3"></path>
    </g>
  </g>
</svg><style>@media (prefers-color-scheme: light) { :root { filter: none; } }
@media (prefers-color-scheme: dark) { :root { filter: none; } }
</style></svg>