<?xml version="1.0" standalone="no"?>
<!DOCTYPE svg PUBLIC "-//W3C//DTD SVG 20010904//EN"
 "http://www.w3.org/TR/2001/REC-SVG-20010904/DTD/svg10.dtd">
<svg version="1.0" xmlns="http://www.w3.org/2000/svg"
 width="262.000000pt" height="262.000000pt" viewBox="0 0 262.000000 262.000000"
 preserveAspectRatio="xMidYMid meet">
<metadata>
Created by potrace 1.11, written by Peter Selinger 2001-2013
</metadata>
<g transform="translate(0.000000,262.000000) scale(0.100000,-0.100000)"
fill="#000000" stroke="none">
<path d="M1235 2584 c-11 -1 -51 -6 -89 -9 l-68 -7 7 -46 c9 -65 31 -98 100
-152 72 -56 90 -96 80 -183 -4 -31 -11 -59 -15 -62 -4 -3 -26 20 -49 50 -46
61 -119 122 -199 168 -48 27 -53 33 -47 56 9 36 18 141 13 141 -26 0 -243 -88
-287 -116 l-23 -16 48 -22 c126 -59 234 -192 220 -270 -12 -63 -24 -64 -158
-20 -140 45 -164 64 -197 153 -12 33 -26 63 -32 67 -13 8 -70 -36 -148 -116
l-64 -65 44 -8 c208 -37 318 -67 344 -93 11 -11 15 -36 15 -94 0 -43 7 -113
15 -156 8 -43 14 -79 12 -80 -4 -5 -208 66 -246 86 -42 21 -95 76 -130 135
-25 42 -100 125 -113 125 -21 0 -165 -260 -154 -279 14 -21 100 -34 195 -27
78 5 101 3 110 -8 7 -8 37 -24 69 -37 31 -12 61 -25 65 -29 4 -4 -20 -16 -55
-26 -95 -28 -293 -26 -367 4 -30 12 -56 20 -58 18 -7 -6 -43 -182 -43 -208 0
-16 5 -28 12 -28 6 0 50 18 97 40 100 46 187 70 251 70 44 0 46 -1 94 -67 26
-36 50 -72 53 -78 3 -8 -33 -22 -109 -41 -91 -23 -135 -29 -228 -29 -63 0
-130 3 -147 7 l-33 8 0 -58 c0 -31 3 -80 6 -108 l7 -52 71 38 c71 38 181 78
191 69 2 -3 0 -20 -5 -38 -5 -17 -12 -63 -16 -102 -8 -88 -18 -94 -126 -86
-90 7 -97 2 -78 -60 26 -79 72 -193 78 -193 4 1 23 21 42 46 36 47 161 154
209 179 26 13 31 12 86 -26 32 -21 89 -56 127 -76 37 -21 68 -41 68 -45 0 -4
-85 -35 -189 -68 -162 -52 -281 -105 -281 -125 0 -10 76 -118 112 -159 l34
-39 53 82 c63 96 97 127 118 109 28 -23 1 -76 -90 -176 l-48 -53 52 -47 c56
-50 177 -142 188 -142 4 0 1 39 -6 87 -20 125 -12 251 18 311 35 68 94 96 203
96 64 0 90 -4 123 -22 93 -48 133 -137 133 -291 0 -130 -15 -203 -55 -278 -19
-34 -31 -64 -27 -67 25 -15 166 -31 287 -31 122 0 305 19 305 32 0 2 -11 21
-25 41 -61 88 -87 260 -66 430 22 178 77 263 179 277 121 16 210 -45 280 -192
30 -64 36 -89 39 -157 3 -69 0 -93 -26 -166 -16 -47 -28 -86 -27 -87 12 -13
296 217 296 238 0 5 -10 9 -21 9 -47 0 -133 139 -115 185 16 42 85 0 162 -99
l30 -38 52 75 c47 68 132 221 132 238 0 12 -104 -12 -180 -42 -86 -33 -109
-35 -173 -13 -63 21 -119 89 -89 108 4 2 46 9 92 16 57 7 103 20 142 40 74 38
172 63 224 57 l42 -4 15 76 c9 42 18 95 21 119 6 42 6 42 -21 36 -26 -6 -88
-37 -159 -79 -63 -38 -124 15 -124 108 0 40 5 54 29 78 36 36 82 38 159 9 29
-11 68 -20 87 -20 l35 0 -1 68 c0 69 -21 217 -31 228 -18 17 -58 -14 -138
-108 -18 -22 -60 -51 -96 -68 -68 -33 -157 -50 -168 -32 -3 6 5 46 19 89 13
43 27 99 30 124 l6 45 77 13 c42 7 112 24 155 38 93 31 93 23 15 183 l-51 105
-23 -52 c-22 -49 -26 -53 -56 -53 -36 1 -267 45 -275 53 -6 6 43 91 60 105 7
5 47 12 90 16 81 6 117 18 117 39 0 13 -127 157 -138 157 -4 0 -13 -14 -21
-31 -7 -17 -49 -78 -92 -135 -43 -58 -82 -112 -87 -120 -5 -9 -38 -22 -74 -29
-36 -8 -90 -23 -119 -35 -70 -26 -87 -25 -101 6 -27 58 47 250 121 317 48 44
93 57 192 57 50 0 82 5 95 14 19 15 19 15 -1 30 -81 64 -249 161 -312 180 -23
7 -23 6 -23 -81 0 -96 -13 -135 -72 -220 -17 -26 -44 -77 -59 -113 -14 -36
-33 -66 -41 -68 -22 -4 -40 45 -45 123 -8 103 10 167 76 286 38 68 54 106 47
111 -10 7 -110 30 -185 42 -31 6 -33 5 -27 -19 3 -13 20 -48 37 -77 17 -28 31
-59 31 -67 0 -9 -12 -43 -26 -76 -14 -33 -28 -80 -31 -105 -11 -83 -15 -89
-68 -125 -28 -19 -57 -35 -64 -35 -18 0 -17 65 3 231 12 98 14 158 8 210 l-9
74 -45 1 c-25 1 -54 0 -65 -2z m-199 -340 c69 -48 122 -109 163 -187 l28 -54
-22 -99 c-15 -66 -27 -100 -37 -102 -18 -3 -89 95 -124 171 -13 30 -33 96 -45
147 -11 51 -26 108 -34 127 -27 65 -26 65 71 -3z m459 -288 c37 -71 40 -85 40
-155 0 -74 -2 -79 -47 -151 -49 -79 -113 -150 -134 -150 -19 0 -39 35 -64 110
-28 83 -24 173 12 251 28 62 124 182 141 176 6 -2 29 -38 52 -81z m-619 5 c74
-47 148 -121 197 -194 36 -54 109 -198 104 -203 -2 -2 -27 3 -57 11 -30 8 -90
15 -132 15 -70 0 -78 2 -96 25 -63 80 -133 385 -89 385 8 0 41 -17 73 -39z
m1101 -107 c-3 -3 -12 -4 -19 -1 -8 3 -5 6 6 6 11 1 17 -2 13 -5z m238 -9 c60
-9 111 -18 114 -21 18 -18 -160 -110 -232 -120 -38 -5 -51 -3 -67 11 -23 21
-24 38 -9 101 11 42 13 44 48 44 21 0 86 -7 146 -15z m-285 -7 c0 -24 -43
-183 -53 -196 -6 -7 -52 -44 -102 -82 -114 -86 -207 -184 -270 -284 -42 -67
-51 -77 -74 -74 -40 5 -41 61 -1 146 53 114 167 295 212 338 46 44 131 98 219
139 62 28 69 30 69 13z m-1198 -224 c23 -15 64 -49 90 -76 47 -48 108 -141
108 -164 0 -7 -21 -4 -57 9 -39 13 -88 20 -149 21 -89 1 -91 2 -142 41 -29 21
-65 56 -82 76 l-30 37 63 22 c34 11 78 29 97 40 46 25 53 25 102 -6z m1403
-26 c-19 -86 -49 -144 -104 -198 -57 -56 -164 -120 -178 -107 -11 12 14 165
34 206 20 39 68 70 168 108 83 30 88 30 80 -9z m-988 -133 c49 -33 93 -85 93
-111 0 -5 -6 -19 -14 -29 -45 -62 -209 35 -248 146 -9 27 -8 34 6 45 24 17 92
-4 163 -51z m647 -97 c-11 -32 -20 -97 -23 -168 l-6 -115 -50 -6 c-27 -3 -67
-9 -87 -13 l-38 -8 0 56 c0 37 7 72 22 103 23 49 182 222 194 211 3 -4 -2 -31
-12 -60z m-885 -64 c68 -19 121 -68 121 -112 0 -17 -5 -34 -10 -37 -6 -4 -45
1 -87 11 -141 31 -314 2 -533 -90 -46 -20 -86 -34 -88 -31 -9 8 20 129 39 167
23 46 31 50 145 77 173 42 299 47 413 15z m1248 -71 c26 -12 40 -29 59 -72 14
-31 39 -71 56 -88 31 -32 31 -33 12 -48 -34 -26 -106 -45 -167 -45 -91 0 -185
19 -213 44 -58 49 -30 157 51 203 50 28 149 31 202 6z m-1364 -188 c153 -40
161 -120 13 -120 -45 0 -82 9 -141 33 -84 34 -150 70 -143 78 10 9 94 22 153
23 34 1 87 -6 118 -14z"/>
</g>
</svg>
